<svg width="93" height="51" viewBox="0 0 93 51" fill="none" xmlns="http://www.w3.org/2000/svg">
<path d="M5.46577 51C4.70664 51 3.90196 50.8631 3.05172 50.5894C2.20149 50.3461 1.48791 49.89 0.910963 49.2209C0.303654 48.5823 0 47.6699 0 46.4839C0 45.602 0.197375 44.8569 0.592125 44.2487C0.95651 43.6404 1.30571 43.1843 1.63973 42.8801C2.09521 44.1878 2.67216 45.2522 3.37056 46.0733C4.06896 46.9249 5.19249 47.3506 6.74112 47.3506C7.95574 47.3506 9.03371 46.8488 9.97504 45.8453C10.9467 44.8417 11.7818 43.4732 12.4802 41.7397C13.209 40.0063 13.8314 38.0143 14.3477 35.7639C14.8942 33.5134 15.3345 31.1261 15.6686 28.602C16.0026 26.0778 16.2607 23.5385 16.4429 20.9839C16.6554 18.4293 16.8073 15.9812 16.8983 13.6395C16.9894 11.2674 17.035 9.12344 17.035 7.20751C17.035 6.1127 16.9894 5.0483 16.8983 4.01431C16.8073 2.94991 16.534 1.96154 16.0785 1.04919C16.4125 0.745081 16.8832 0.50179 17.4905 0.319322C18.1281 0.10644 18.6747 0 19.1302 0C20.1323 0 20.8914 0.364937 21.4076 1.09481C21.9542 1.79427 22.2275 3.04114 22.2275 4.83542C22.2275 7.29875 22.1516 9.95975 21.9997 12.8184C21.8479 15.6467 21.5898 18.551 21.2254 21.5313C20.8914 24.5116 20.4359 27.4311 19.859 30.2898C19.282 33.1181 18.5533 35.7791 17.6727 38.2728C16.8224 40.7665 15.8052 42.9714 14.6209 44.8873C13.4671 46.8032 12.131 48.2934 10.6127 49.3578C9.09444 50.4526 7.37879 51 5.46577 51Z" fill="url(#paint0_linear_381_502)"/>
<path d="M37.3011 2.18963C37.3011 2.52415 37.2555 2.9195 37.1644 3.37567C37.1037 3.83184 36.9822 4.36404 36.8 4.97227C35.6765 5.67174 34.6289 6.02147 33.6572 6.02147C32.7462 6.02147 32.1086 5.85421 31.7442 5.51968C31.3798 5.15474 31.1976 4.60734 31.1976 3.87746C31.1976 3.54293 31.228 3.16279 31.2887 2.73703C31.3494 2.31127 31.4254 1.82469 31.5164 1.27728C32.64 0.577817 33.6876 0.228086 34.6593 0.228086C35.3577 0.228086 35.965 0.380144 36.4812 0.68426C37.0278 0.988374 37.3011 1.49016 37.3011 2.18963ZM32.974 40.873C31.9112 40.873 31.0458 40.4472 30.3777 39.5957C29.7401 38.7442 29.4212 37.1628 29.4212 34.8515C29.4212 33.0572 29.5731 31.2021 29.8767 29.2862C30.2107 27.3703 30.5296 25.3784 30.8332 23.3104C31.1672 21.2424 31.3343 19.068 31.3343 16.7871C31.3343 15.814 31.2887 14.8104 31.1976 13.7764C31.1065 12.712 30.8332 11.754 30.3777 10.9025C30.7118 10.568 31.1976 10.3095 31.8353 10.127C32.473 9.94454 33.0044 9.85331 33.4295 9.85331C34.219 9.85331 34.9174 10.1118 35.5247 10.6288C36.1624 11.1458 36.4812 12.0429 36.4812 13.3202C36.4812 14.0805 36.3749 15.2209 36.1624 16.7415C35.9498 18.2621 35.7069 19.9803 35.4336 21.8962C35.1603 23.7818 34.9174 25.6977 34.7048 27.644C34.4923 29.5903 34.386 31.3694 34.386 32.9812C34.386 34.1673 34.4771 35.3077 34.6593 36.4025C34.8718 37.4669 35.3577 38.4097 36.1168 39.2308C35.5399 39.8998 34.9629 40.3408 34.386 40.5537C33.809 40.7665 33.3384 40.873 32.974 40.873Z" fill="url(#paint1_linear_381_502)"/>
<path d="M52.4245 41.0098C51.7261 41.0098 51.1947 40.8426 50.8303 40.508C50.4963 40.1431 50.2533 39.6565 50.1015 39.0483C49.5853 36.8891 49.0235 34.6234 48.4162 32.2513C47.8393 29.8488 47.2168 27.5224 46.5487 25.2719C45.9111 22.9911 45.2279 20.9383 44.4991 19.1136C43.8007 17.2585 43.0871 15.7835 42.3583 14.6887C41.6296 13.5939 40.9008 13.0313 40.172 13.0009C40.5668 11.8453 41.1437 11.0546 41.9028 10.6288C42.6923 10.203 43.3604 9.99016 43.907 9.99016C44.6965 9.99016 45.5011 10.3399 46.321 11.0394C47.1409 11.7388 47.8848 12.9553 48.5529 14.6887C48.7958 15.297 49.1146 16.3614 49.5094 17.8819C49.9041 19.4025 50.3444 21.1816 50.8303 23.2191C51.3465 25.2263 51.8627 27.3095 52.3789 29.4687C52.8951 31.6279 53.381 33.6503 53.8364 35.5358C54.6259 33.6503 55.3547 31.6887 56.0228 29.6512C56.6908 27.6136 57.2677 25.6216 57.7536 23.6753C58.2394 21.6986 58.6038 19.8739 58.8467 18.2013C59.12 16.5286 59.2567 15.1297 59.2567 14.0045C59.2567 13.1225 59.0897 12.3927 58.7556 11.8148C59.1808 11.1458 59.7273 10.7048 60.3954 10.492C61.0634 10.2487 61.5948 10.127 61.9896 10.127C62.6272 10.127 63.1283 10.3095 63.4926 10.6744C63.8874 11.0089 64.0848 11.602 64.0848 12.4535C64.0848 13.0617 63.9329 14.0349 63.6293 15.373C63.356 16.7111 62.9461 18.2925 62.3995 20.1172C61.8833 21.9114 61.2608 23.8426 60.532 25.9106C59.8336 27.9481 59.0745 29.9857 58.2546 32.0233C57.4347 34.0608 56.5845 35.9615 55.7039 37.7254C55.4306 38.3032 55.2333 38.7442 55.1118 39.0483C55.0207 39.322 54.96 39.5957 54.9296 39.8694C54.9296 39.9606 54.9296 40.0519 54.9296 40.1431C54.96 40.2343 54.9752 40.3408 54.9752 40.4624C53.9731 40.8274 53.1229 41.0098 52.4245 41.0098Z" fill="url(#paint2_linear_381_502)"/>
<path d="M74.8718 41.1923C72.807 41.1923 71.1673 40.1735 69.9527 38.136C68.7684 36.0984 68.1763 33.3005 68.1763 29.7424C68.1763 26.8837 68.5103 24.2227 69.1783 21.7594C69.8767 19.2657 70.8333 17.0912 72.0479 15.2361C73.2625 13.381 74.6745 11.9365 76.2838 10.9025C77.8932 9.86852 79.6392 9.35152 81.5219 9.35152C84.1029 9.35152 86.2437 10.3703 87.9442 12.4079C88.1871 11.4651 88.4907 10.7961 88.8551 10.4007C89.2499 10.0054 89.7813 9.80769 90.4493 9.80769C91.3906 9.80769 92.2105 10.203 92.9089 10.9937C92.6356 11.7236 92.3775 12.7424 92.1346 14.0501C91.8917 15.3274 91.6791 16.7719 91.4969 18.3837C91.3147 19.9651 91.1629 21.6225 91.0414 23.356C90.9503 25.059 90.9048 26.7013 90.9048 28.2826C90.9048 31.0197 91.0566 33.2093 91.3603 34.8515C91.6943 36.4633 92.2409 37.9079 93 39.1852C92.1194 40.3104 91.087 40.873 89.9027 40.873C88.6274 40.873 87.6557 40.0519 86.9876 38.4097C86.3196 36.7674 85.9856 34.3801 85.9856 31.2478C85.9856 30.7916 86.0008 30.2442 86.0311 29.6055C86.0919 28.9365 86.1526 28.2674 86.2133 27.5984C86.2741 26.8989 86.3196 26.3059 86.35 25.8193C85.3176 28.7388 84.1181 31.3694 82.7517 33.7111C81.4156 36.0224 80.0491 37.847 78.6523 39.1852C77.2859 40.5233 76.0257 41.1923 74.8718 41.1923ZM76.4205 36.3569C77.1189 36.3569 77.9084 35.9007 78.789 34.9884C79.6696 34.0456 80.5805 32.7987 81.5219 31.2478C82.4936 29.6968 83.3893 27.9785 84.2092 26.093C85.0594 24.2075 85.7882 22.2916 86.3955 20.3453C87.0028 18.3989 87.3976 16.5742 87.5798 14.8712C85.5149 13.2898 83.5564 12.4991 81.7041 12.4991C80.0036 12.4991 78.4853 13.1834 77.1493 14.5519C75.8435 15.9204 74.8111 17.8211 74.052 20.254C73.3232 22.6565 72.9588 25.4392 72.9588 28.602C72.9588 31.0045 73.2625 32.9052 73.8698 34.3041C74.5075 35.6726 75.3577 36.3569 76.4205 36.3569Z" fill="url(#paint3_linear_381_502)"/>
<defs>
<linearGradient id="paint0_linear_381_502" x1="96.7897" y1="21.8582" x2="8.54024" y2="22.8057" gradientUnits="userSpaceOnUse">
<stop offset="0.0530217" stop-color="#52FCEE"/>
<stop offset="0.509" stop-color="#FEFFBA"/>
<stop offset="0.93743" stop-color="#D63CB7"/>
</linearGradient>
<linearGradient id="paint1_linear_381_502" x1="96.7897" y1="21.8582" x2="8.54024" y2="22.8057" gradientUnits="userSpaceOnUse">
<stop offset="0.0530217" stop-color="#52FCEE"/>
<stop offset="0.509" stop-color="#FEFFBA"/>
<stop offset="0.93743" stop-color="#D63CB7"/>
</linearGradient>
<linearGradient id="paint2_linear_381_502" x1="96.7897" y1="21.8582" x2="8.54024" y2="22.8057" gradientUnits="userSpaceOnUse">
<stop offset="0.0530217" stop-color="#52FCEE"/>
<stop offset="0.509" stop-color="#FEFFBA"/>
<stop offset="0.93743" stop-color="#D63CB7"/>
</linearGradient>
<linearGradient id="paint3_linear_381_502" x1="96.7897" y1="21.8582" x2="8.54024" y2="22.8057" gradientUnits="userSpaceOnUse">
<stop offset="0.0530217" stop-color="#52FCEE"/>
<stop offset="0.509" stop-color="#FEFFBA"/>
<stop offset="0.93743" stop-color="#D63CB7"/>
</linearGradient>
</defs>
</svg>
