<svg width="83" height="45" viewBox="0 0 83 45" fill="none" xmlns="http://www.w3.org/2000/svg">
<path d="M15.8125 7.375C15.625 7.70833 15.5312 10.2188 15.5312 14.9062L15.5625 33.4062C15.5625 36.7812 14.8021 39.4167 13.2812 41.3125C11.7604 43.2083 9.67708 44.1562 7.03125 44.1562C5.34375 44.1562 3.90625 43.7917 2.71875 43.0625C1.53125 42.3333 0.9375 41.4479 0.9375 40.4062C0.9375 39.7812 1.13542 39.2708 1.53125 38.875C1.92708 38.5 2.4375 38.3125 3.0625 38.3125C4.04167 38.3125 5 38.7708 5.9375 39.6875L8.84375 42.625L6.75 41.8438C8.10417 42.0729 9.05208 41.6979 9.59375 40.7188C10.1562 39.7396 10.4375 37.9271 10.4375 35.2812V14.8438C10.4375 12.8021 10.4167 11.1146 10.375 9.78125C10.3333 8.44792 10.2708 7.64583 10.1875 7.375L6.75 6.6875L6.875 4.5625H18.8125L18.9375 6.6875L15.8125 7.375Z" fill="white"/>
<path d="M22.125 34L22 32L25.3438 31.25C25.3854 31.0833 25.4271 30.6042 25.4688 29.8125C25.5312 29 25.5729 27.7396 25.5938 26.0312V22.4688C25.5938 20.0521 25.4583 18.0833 25.1875 16.5625L21.8438 15.8438V14L29.6562 12L30.625 12.8125C30.5208 13.8333 30.4375 14.8542 30.375 15.875C30.3333 16.8958 30.3125 18.0729 30.3125 19.4062V25.75C30.3125 27.1458 30.3333 28.3542 30.375 29.375C30.4375 30.375 30.5208 31 30.625 31.25L33.9688 32L33.8125 34H22.125ZM28.0312 6.84375C27.0104 6.84375 26.1771 6.52083 25.5312 5.875C24.8854 5.22917 24.5625 4.44792 24.5625 3.53125C24.5625 2.61458 24.8854 1.83333 25.5312 1.1875C26.1771 0.541667 27.0104 0.21875 28.0312 0.21875C29.0312 0.21875 29.8333 0.541667 30.4375 1.1875C31.0625 1.83333 31.375 2.61458 31.375 3.53125C31.375 4.44792 31.0625 5.22917 30.4375 5.875C29.8333 6.52083 29.0312 6.84375 28.0312 6.84375Z" fill="white"/>
<path d="M45.9375 34.1875L36.9688 15.0625L34.625 14.25L34.75 12.3125H45.4375L45.5938 14.25L42.4688 15.0625L48.9688 29.3438H47.5938L53.5625 15.0625L50.4688 14.25L50.5938 12.3125H59.1875L59.2812 14.25L56.9375 15.0625L47.6875 34.1875H45.9375Z" fill="white"/>
<path d="M68.5625 34.375C67.125 34.375 65.875 34.0938 64.8125 33.5312C63.7708 32.9479 62.9583 32.2188 62.375 31.3438C61.8125 30.4688 61.5312 29.6042 61.5312 28.75C61.5312 27.5833 61.8958 26.625 62.625 25.875C63.3542 25.125 64.5417 24.4896 66.1875 23.9688L73.9062 21.4688V19.1562C73.9062 17.9896 73.375 16.9792 72.3125 16.125C71.2708 15.25 70.0312 14.8125 68.5938 14.8125C67.8229 14.8125 67.3021 14.9792 67.0312 15.3125C66.7604 15.625 66.5938 16.2396 66.5312 17.1562L66.4062 19.5625C65.0521 19.875 63.9167 19.8333 63 19.4375C62.0833 19.0417 61.625 18.3958 61.625 17.5C61.625 16.75 62.0833 15.9792 63 15.1875C63.9375 14.375 65.0625 13.6667 66.375 13.0625C67.6875 12.4583 68.9167 12.0729 70.0625 11.9062C72.6875 11.9062 74.7917 12.5729 76.375 13.9062C77.9583 15.2188 78.7604 16.9583 78.7812 19.125L78.625 27.0312C78.625 27.7604 78.6458 28.4271 78.6875 29.0312C78.75 29.6146 78.8542 30.0521 79 30.3438L82.1875 30.9688V32.7188L79.5 33.75C78.9792 33.9375 78.5 34.0833 78.0625 34.1875C77.6458 34.3125 77.2708 34.375 76.9375 34.375C75.8125 34.375 75.0521 33.7917 74.6562 32.625L74.0312 30.5L74.875 30.5938C72.7292 33.1146 70.625 34.375 68.5625 34.375ZM70.3125 30.9688C71.6042 30.9688 72.8021 30.3646 73.9062 29.1562V23.9688L69 25.1875C67.5 25.5625 66.75 26.4167 66.75 27.75C66.75 28.5833 67.0938 29.3333 67.7812 30C68.4896 30.6458 69.3333 30.9688 70.3125 30.9688Z" fill="white"/>
</svg>
